<svg width="153" height="105" viewBox="0 0 153 105" fill="none" xmlns="http://www.w3.org/2000/svg">
<g filter="url(#filter0_d_421_801)">
<path d="M5.484 63C4.98 63 4.728 62.748 4.728 62.244C4.728 61.74 4.98 61.488 5.484 61.488C7.356 61.488 8.616 61.218 9.264 60.678C9.912 60.102 10.236 59.274 10.236 58.194V28.548C10.236 27.504 9.93 26.712 9.318 26.172C8.706 25.596 7.392 25.308 5.376 25.308C4.908 25.308 4.674 25.056 4.674 24.552C4.674 24.048 4.908 23.796 5.376 23.796C5.7 23.796 6.618 23.832 8.13 23.904C9.678 23.94 11.478 23.958 13.53 23.958C15.906 23.958 17.778 23.94 19.146 23.904C20.55 23.832 21.612 23.796 22.332 23.796C24.6 23.796 26.814 24.156 28.974 24.876C31.134 25.56 33.078 26.676 34.806 28.224C36.534 29.772 37.902 31.806 38.91 34.326C39.954 36.81 40.476 39.852 40.476 43.452C40.476 46.908 39.954 49.878 38.91 52.362C37.902 54.846 36.516 56.88 34.752 58.464C33.024 60.012 31.08 61.164 28.92 61.92C26.796 62.64 24.6 63 22.332 63C21.612 63 20.55 62.982 19.146 62.946C17.742 62.91 15.834 62.892 13.422 62.892C11.406 62.892 9.66 62.91 8.184 62.946C6.744 62.982 5.844 63 5.484 63ZM17.904 61.326H21.09C22.566 61.326 24.006 61.056 25.41 60.516C26.814 59.94 28.092 58.986 29.244 57.654C30.396 56.286 31.314 54.45 31.998 52.146C32.682 49.842 33.024 46.944 33.024 43.452C33.024 39.816 32.718 36.828 32.106 34.488C31.53 32.148 30.72 30.33 29.676 29.034C28.632 27.702 27.444 26.784 26.112 26.28C24.816 25.74 23.448 25.47 22.008 25.47H16.824V60.246C16.824 61.038 17.184 61.398 17.904 61.326Z" fill="white"/>
<path d="M48.7 44.36C47.4 44.36 46.32 44.06 45.46 43.46C44.62 42.86 44.2 41.86 44.2 40.46C44.2 39.28 44.56 38.31 45.28 37.55C46.02 36.77 47.05 36.2 48.37 35.84C49.69 35.46 51.23 35.28 52.99 35.3V34.13C52.99 33.05 52.8 32.2 52.42 31.58C52.04 30.94 51.43 30.62 50.59 30.62C49.81 30.62 49.22 30.77 48.82 31.07C48.42 31.35 48.32 31.72 48.52 32.18C48.84 32.86 48.83 33.47 48.49 34.01C48.15 34.53 47.57 34.79 46.75 34.79C46.25 34.79 45.83 34.63 45.49 34.31C45.15 33.97 44.98 33.5 44.98 32.9C44.98 32.3 45.23 31.74 45.73 31.22C46.23 30.7 46.91 30.28 47.77 29.96C48.65 29.62 49.64 29.45 50.74 29.45C52.56 29.45 53.93 29.85 54.85 30.65C55.77 31.45 56.23 32.55 56.23 33.95V40.31C56.23 41.11 56.31 41.63 56.47 41.87C56.65 42.09 56.87 42.2 57.13 42.2C57.33 42.2 57.5 42.17 57.64 42.11C57.8 42.03 57.92 41.95 58 41.87C58.22 41.65 58.44 41.66 58.66 41.9C58.76 42 58.8 42.11 58.78 42.23C58.76 42.35 58.71 42.47 58.63 42.59C58.35 43.05 58 43.44 57.58 43.76C57.18 44.06 56.69 44.21 56.11 44.21C55.37 44.21 54.74 44.02 54.22 43.64C53.72 43.26 53.37 42.67 53.17 41.87C52.81 42.53 52.29 43.11 51.61 43.61C50.95 44.11 49.98 44.36 48.7 44.36ZM50.2 42.56C50.78 42.56 51.28 42.4 51.7 42.08C52.12 41.74 52.44 41.34 52.66 40.88C52.88 40.42 52.99 39.98 52.99 39.56V36.35C51.41 36.31 50.14 36.56 49.18 37.1C48.22 37.64 47.74 38.59 47.74 39.95C47.74 40.73 47.89 41.31 48.19 41.69C48.49 42.05 48.83 42.29 49.21 42.41C49.61 42.51 49.94 42.56 50.2 42.56ZM58.8527 44C58.5527 44 58.4027 43.83 58.4027 43.49C58.4027 43.17 58.5527 43.01 58.8527 43.01C59.5327 43.01 59.9927 42.86 60.2327 42.56C60.4927 42.26 60.6227 41.75 60.6227 41.03V32.39C60.6227 31.99 60.5927 31.68 60.5327 31.46C60.4727 31.22 60.3127 31.08 60.0527 31.04C59.9127 31 59.7027 30.97 59.4227 30.95C59.1427 30.91 58.9327 30.88 58.7927 30.86C58.5127 30.82 58.3727 30.66 58.3727 30.38C58.3727 30.06 58.5227 29.9 58.8227 29.9C58.8827 29.9 59.1127 29.89 59.5127 29.87C59.9127 29.85 60.3627 29.84 60.8627 29.84C61.3627 29.82 61.8227 29.81 62.2427 29.81C62.6627 29.81 62.9327 29.81 63.0527 29.81C63.5527 29.83 63.8027 30.09 63.8027 30.59V32.27C64.0827 31.81 64.4527 31.37 64.9127 30.95C65.3927 30.51 65.9627 30.15 66.6227 29.87C67.2827 29.59 68.0127 29.45 68.8127 29.45C69.5527 29.45 70.2327 29.59 70.8527 29.87C71.4727 30.15 71.9727 30.62 72.3527 31.28C72.7327 31.94 72.9227 32.85 72.9227 34.01V40.97C72.9227 41.73 73.0327 42.26 73.2527 42.56C73.4927 42.86 73.8627 43.01 74.3627 43.01C74.6627 43.01 74.8127 43.17 74.8127 43.49C74.8127 43.83 74.6627 44 74.3627 44C74.2227 44 73.9727 43.99 73.6127 43.97C73.2527 43.95 72.8627 43.94 72.4427 43.94C72.0227 43.92 71.6327 43.91 71.2727 43.91C70.9327 43.91 70.5527 43.92 70.1327 43.94C69.7127 43.94 69.3227 43.95 68.9627 43.97C68.6227 43.99 68.3727 44 68.2127 44C67.9127 44 67.7627 43.83 67.7627 43.49C67.7627 43.17 67.9127 43.01 68.2127 43.01C68.8327 43.01 69.2327 42.86 69.4127 42.56C69.5927 42.26 69.6827 41.75 69.6827 41.03V34.43C69.6827 33.29 69.4727 32.49 69.0527 32.03C68.6327 31.55 68.0427 31.31 67.2827 31.31C66.7227 31.31 66.1727 31.49 65.6327 31.85C65.1127 32.19 64.6827 32.65 64.3427 33.23C64.0227 33.81 63.8627 34.45 63.8627 35.15V40.97C63.8627 41.73 63.9727 42.26 64.1927 42.56C64.4127 42.86 64.7427 43.01 65.1827 43.01C65.5027 43.01 65.6627 43.17 65.6627 43.49C65.6627 43.83 65.5027 44 65.1827 44C64.9627 44 64.5427 43.99 63.9227 43.97C63.3227 43.93 62.7627 43.91 62.2427 43.91C61.9027 43.91 61.4927 43.92 61.0127 43.94C60.5327 43.94 60.0927 43.95 59.6927 43.97C59.2927 43.99 59.0127 44 58.8527 44ZM77.1046 44C76.8046 44 76.6546 43.83 76.6546 43.49C76.6546 43.17 76.8046 43.01 77.1046 43.01C77.7846 43.01 78.2446 42.86 78.4846 42.56C78.7446 42.26 78.8746 41.75 78.8746 41.03V32.39C78.8746 31.99 78.8446 31.68 78.7846 31.46C78.7246 31.22 78.5646 31.08 78.3046 31.04C78.1646 31 77.9546 30.97 77.6746 30.95C77.3946 30.91 77.1846 30.88 77.0446 30.86C76.7646 30.82 76.6246 30.66 76.6246 30.38C76.6246 30.06 76.7746 29.9 77.0746 29.9C77.1346 29.9 77.3646 29.89 77.7646 29.87C78.1646 29.85 78.6146 29.84 79.1146 29.84C79.6146 29.82 80.0746 29.81 80.4946 29.81C80.9146 29.81 81.1846 29.81 81.3046 29.81C81.8046 29.83 82.0546 30.09 82.0546 30.59V32.27C82.3346 31.81 82.7046 31.37 83.1646 30.95C83.6446 30.51 84.2146 30.15 84.8746 29.87C85.5346 29.59 86.2646 29.45 87.0646 29.45C87.8046 29.45 88.4846 29.59 89.1046 29.87C89.7246 30.15 90.2246 30.62 90.6046 31.28C90.9846 31.94 91.1746 32.85 91.1746 34.01V40.97C91.1746 41.73 91.2846 42.26 91.5046 42.56C91.7446 42.86 92.1146 43.01 92.6146 43.01C92.9146 43.01 93.0646 43.17 93.0646 43.49C93.0646 43.83 92.9146 44 92.6146 44C92.4746 44 92.2246 43.99 91.8646 43.97C91.5046 43.95 91.1146 43.94 90.6946 43.94C90.2746 43.92 89.8846 43.91 89.5246 43.91C89.1846 43.91 88.8046 43.92 88.3846 43.94C87.9646 43.94 87.5746 43.95 87.2146 43.97C86.8746 43.99 86.6246 44 86.4646 44C86.1646 44 86.0146 43.83 86.0146 43.49C86.0146 43.17 86.1646 43.01 86.4646 43.01C87.0846 43.01 87.4846 42.86 87.6646 42.56C87.8446 42.26 87.9346 41.75 87.9346 41.03V34.43C87.9346 33.29 87.7246 32.49 87.3046 32.03C86.8846 31.55 86.2946 31.31 85.5346 31.31C84.9746 31.31 84.4246 31.49 83.8846 31.85C83.3646 32.19 82.9346 32.65 82.5946 33.23C82.2746 33.81 82.1146 34.45 82.1146 35.15V40.97C82.1146 41.73 82.2246 42.26 82.4446 42.56C82.6646 42.86 82.9946 43.01 83.4346 43.01C83.7546 43.01 83.9146 43.17 83.9146 43.49C83.9146 43.83 83.7546 44 83.4346 44C83.2146 44 82.7946 43.99 82.1746 43.97C81.5746 43.93 81.0146 43.91 80.4946 43.91C80.1546 43.91 79.7446 43.92 79.2646 43.94C78.7846 43.94 78.3446 43.95 77.9446 43.97C77.5446 43.99 77.2646 44 77.1046 44ZM99.6766 44.36C98.3766 44.36 97.2966 44.06 96.4366 43.46C95.5966 42.86 95.1766 41.86 95.1766 40.46C95.1766 39.28 95.5366 38.31 96.2566 37.55C96.9966 36.77 98.0266 36.2 99.3466 35.84C100.667 35.46 102.207 35.28 103.967 35.3V34.13C103.967 33.05 103.777 32.2 103.397 31.58C103.017 30.94 102.407 30.62 101.567 30.62C100.787 30.62 100.197 30.77 99.7966 31.07C99.3966 31.35 99.2966 31.72 99.4966 32.18C99.8166 32.86 99.8066 33.47 99.4666 34.01C99.1266 34.53 98.5466 34.79 97.7266 34.79C97.2266 34.79 96.8066 34.63 96.4666 34.31C96.1266 33.97 95.9566 33.5 95.9566 32.9C95.9566 32.3 96.2066 31.74 96.7066 31.22C97.2066 30.7 97.8866 30.28 98.7466 29.96C99.6266 29.62 100.617 29.45 101.717 29.45C103.537 29.45 104.907 29.85 105.827 30.65C106.747 31.45 107.207 32.55 107.207 33.95V40.31C107.207 41.11 107.287 41.63 107.447 41.87C107.627 42.09 107.847 42.2 108.107 42.2C108.307 42.2 108.477 42.17 108.617 42.11C108.777 42.03 108.897 41.95 108.977 41.87C109.197 41.65 109.417 41.66 109.637 41.9C109.737 42 109.777 42.11 109.757 42.23C109.737 42.35 109.687 42.47 109.607 42.59C109.327 43.05 108.977 43.44 108.557 43.76C108.157 44.06 107.667 44.21 107.087 44.21C106.347 44.21 105.717 44.02 105.197 43.64C104.697 43.26 104.347 42.67 104.147 41.87C103.787 42.53 103.267 43.11 102.587 43.61C101.927 44.11 100.957 44.36 99.6766 44.36ZM101.177 42.56C101.757 42.56 102.257 42.4 102.677 42.08C103.097 41.74 103.417 41.34 103.637 40.88C103.857 40.42 103.967 39.98 103.967 39.56V36.35C102.387 36.31 101.117 36.56 100.157 37.1C99.1966 37.64 98.7166 38.59 98.7166 39.95C98.7166 40.73 98.8666 41.31 99.1666 41.69C99.4666 42.05 99.8066 42.29 100.187 42.41C100.587 42.51 100.917 42.56 101.177 42.56Z" fill="white"/>
<path d="M57.7 72.36C56.4 72.36 55.32 72.06 54.46 71.46C53.62 70.86 53.2 69.86 53.2 68.46C53.2 67.28 53.56 66.31 54.28 65.55C55.02 64.77 56.05 64.2 57.37 63.84C58.69 63.46 60.23 63.28 61.99 63.3V62.13C61.99 61.05 61.8 60.2 61.42 59.58C61.04 58.94 60.43 58.62 59.59 58.62C58.81 58.62 58.22 58.77 57.82 59.07C57.42 59.35 57.32 59.72 57.52 60.18C57.84 60.86 57.83 61.47 57.49 62.01C57.15 62.53 56.57 62.79 55.75 62.79C55.25 62.79 54.83 62.63 54.49 62.31C54.15 61.97 53.98 61.5 53.98 60.9C53.98 60.3 54.23 59.74 54.73 59.22C55.23 58.7 55.91 58.28 56.77 57.96C57.65 57.62 58.64 57.45 59.74 57.45C61.56 57.45 62.93 57.85 63.85 58.65C64.77 59.45 65.23 60.55 65.23 61.95V68.31C65.23 69.11 65.31 69.63 65.47 69.87C65.65 70.09 65.87 70.2 66.13 70.2C66.33 70.2 66.5 70.17 66.64 70.11C66.8 70.03 66.92 69.95 67 69.87C67.22 69.65 67.44 69.66 67.66 69.9C67.76 70 67.8 70.11 67.78 70.23C67.76 70.35 67.71 70.47 67.63 70.59C67.35 71.05 67 71.44 66.58 71.76C66.18 72.06 65.69 72.21 65.11 72.21C64.37 72.21 63.74 72.02 63.22 71.64C62.72 71.26 62.37 70.67 62.17 69.87C61.81 70.53 61.29 71.11 60.61 71.61C59.95 72.11 58.98 72.36 57.7 72.36ZM59.2 70.56C59.78 70.56 60.28 70.4 60.7 70.08C61.12 69.74 61.44 69.34 61.66 68.88C61.88 68.42 61.99 67.98 61.99 67.56V64.35C60.41 64.31 59.14 64.56 58.18 65.1C57.22 65.64 56.74 66.59 56.74 67.95C56.74 68.73 56.89 69.31 57.19 69.69C57.49 70.05 57.83 70.29 58.21 70.41C58.61 70.51 58.94 70.56 59.2 70.56ZM67.8527 72C67.5527 72 67.4027 71.83 67.4027 71.49C67.4027 71.17 67.5527 71.01 67.8527 71.01C68.5327 71.01 68.9927 70.86 69.2327 70.56C69.4927 70.26 69.6227 69.75 69.6227 69.03V60.39C69.6227 59.99 69.5927 59.68 69.5327 59.46C69.4727 59.22 69.3127 59.08 69.0527 59.04C68.9127 59 68.7027 58.97 68.4227 58.95C68.1427 58.91 67.9327 58.88 67.7927 58.86C67.5127 58.82 67.3727 58.66 67.3727 58.38C67.3727 58.06 67.5227 57.9 67.8227 57.9C67.8827 57.9 68.1127 57.89 68.5127 57.87C68.9127 57.85 69.3627 57.84 69.8627 57.84C70.3627 57.82 70.8227 57.81 71.2427 57.81C71.6627 57.81 71.9327 57.81 72.0527 57.81C72.5527 57.83 72.8027 58.09 72.8027 58.59V60.27C73.0827 59.81 73.4527 59.37 73.9127 58.95C74.3927 58.51 74.9627 58.15 75.6227 57.87C76.2827 57.59 77.0127 57.45 77.8127 57.45C78.5527 57.45 79.2327 57.59 79.8527 57.87C80.4727 58.15 80.9727 58.62 81.3527 59.28C81.7327 59.94 81.9227 60.85 81.9227 62.01V68.97C81.9227 69.73 82.0327 70.26 82.2527 70.56C82.4927 70.86 82.8627 71.01 83.3627 71.01C83.6627 71.01 83.8127 71.17 83.8127 71.49C83.8127 71.83 83.6627 72 83.3627 72C83.2227 72 82.9727 71.99 82.6127 71.97C82.2527 71.95 81.8627 71.94 81.4427 71.94C81.0227 71.92 80.6327 71.91 80.2727 71.91C79.9327 71.91 79.5527 71.92 79.1327 71.94C78.7127 71.94 78.3227 71.95 77.9627 71.97C77.6227 71.99 77.3727 72 77.2127 72C76.9127 72 76.7627 71.83 76.7627 71.49C76.7627 71.17 76.9127 71.01 77.2127 71.01C77.8327 71.01 78.2327 70.86 78.4127 70.56C78.5927 70.26 78.6827 69.75 78.6827 69.03V62.43C78.6827 61.29 78.4727 60.49 78.0527 60.03C77.6327 59.55 77.0427 59.31 76.2827 59.31C75.7227 59.31 75.1727 59.49 74.6327 59.85C74.1127 60.19 73.6827 60.65 73.3427 61.23C73.0227 61.81 72.8627 62.45 72.8627 63.15V68.97C72.8627 69.73 72.9727 70.26 73.1927 70.56C73.4127 70.86 73.7427 71.01 74.1827 71.01C74.5027 71.01 74.6627 71.17 74.6627 71.49C74.6627 71.83 74.5027 72 74.1827 72C73.9627 72 73.5427 71.99 72.9227 71.97C72.3227 71.93 71.7627 71.91 71.2427 71.91C70.9027 71.91 70.4927 71.92 70.0127 71.94C69.5327 71.94 69.0927 71.95 68.6927 71.97C68.2927 71.99 68.0127 72 67.8527 72ZM92.8316 72.36C91.5316 72.36 90.3316 72.12 89.2316 71.64C88.1516 71.16 87.2816 70.39 86.6216 69.33C85.9616 68.25 85.6316 66.85 85.6316 65.13C85.6316 63.69 85.9316 62.39 86.5316 61.23C87.1316 60.07 88.0016 59.15 89.1416 58.47C90.2816 57.79 91.6616 57.45 93.2816 57.45C94.1616 57.45 94.9816 57.62 95.7416 57.96C96.5016 58.28 97.1216 58.72 97.6016 59.28C98.0816 59.84 98.3216 60.49 98.3216 61.23C98.3216 61.79 98.1316 62.27 97.7516 62.67C97.3916 63.05 96.9216 63.24 96.3416 63.24C95.7616 63.24 95.3216 63.1 95.0216 62.82C94.7416 62.52 94.6116 62.14 94.6316 61.68C94.6516 61.4 94.7116 61.18 94.8116 61.02C94.9316 60.84 95.0516 60.65 95.1716 60.45C95.2916 60.25 95.3516 60 95.3516 59.7C95.3516 59.48 95.1916 59.24 94.8716 58.98C94.5516 58.72 94.0916 58.59 93.4916 58.59C92.8516 58.59 92.1916 58.8 91.5116 59.22C90.8516 59.62 90.2916 60.3 89.8316 61.26C89.3916 62.2 89.1716 63.49 89.1716 65.13C89.1716 67.01 89.5816 68.41 90.4016 69.33C91.2216 70.25 92.2416 70.71 93.4616 70.71C94.2616 70.71 94.9516 70.56 95.5316 70.26C96.1316 69.96 96.6316 69.59 97.0316 69.15C97.4516 68.69 97.7516 68.24 97.9316 67.8C98.0716 67.48 98.3016 67.39 98.6216 67.53C98.9416 67.65 99.0316 67.88 98.8916 68.22C98.6716 68.8 98.3316 69.41 97.8716 70.05C97.4316 70.69 96.8116 71.24 96.0116 71.7C95.2116 72.14 94.1516 72.36 92.8316 72.36ZM101.08 72C100.76 72 100.6 71.83 100.6 71.49C100.6 71.17 100.76 71.01 101.08 71.01C101.84 71.01 102.35 70.86 102.61 70.56C102.87 70.26 103 69.75 103 69.03V52.89C103 52.33 102.94 51.97 102.82 51.81C102.72 51.63 102.53 51.51 102.25 51.45C102.11 51.41 101.87 51.38 101.53 51.36C101.21 51.32 100.98 51.29 100.84 51.27C100.56 51.23 100.42 51.07 100.42 50.79C100.42 50.49 100.57 50.32 100.87 50.28C100.93 50.28 101.18 50.28 101.62 50.28C102.06 50.26 102.55 50.25 103.09 50.25C103.65 50.25 104.16 50.25 104.62 50.25C105.08 50.23 105.37 50.22 105.49 50.22C105.99 50.22 106.24 50.48 106.24 51V60.24C106.66 59.52 107.31 58.88 108.19 58.32C109.09 57.74 110.12 57.45 111.28 57.45C112.04 57.45 112.72 57.6 113.32 57.9C113.92 58.2 114.39 58.72 114.73 59.46C115.09 60.18 115.27 61.2 115.27 62.52V68.97C115.27 69.71 115.37 70.24 115.57 70.56C115.79 70.86 116.15 71.01 116.65 71.01C116.97 71.01 117.13 71.17 117.13 71.49C117.13 71.83 116.97 72 116.65 72C116.51 72 116.26 71.99 115.9 71.97C115.54 71.95 115.15 71.94 114.73 71.94C114.31 71.92 113.92 71.91 113.56 71.91C113.22 71.91 112.83 71.92 112.39 71.94C111.95 71.94 111.55 71.95 111.19 71.97C110.83 71.99 110.57 72 110.41 72C110.11 72 109.96 71.83 109.96 71.49C109.96 71.17 110.11 71.01 110.41 71.01C111.13 71.01 111.58 70.86 111.76 70.56C111.94 70.26 112.03 69.75 112.03 69.03V62.76C112.03 61.5 111.83 60.59 111.43 60.03C111.05 59.47 110.45 59.19 109.63 59.19C109.09 59.19 108.56 59.36 108.04 59.7C107.52 60.04 107.09 60.49 106.75 61.05C106.41 61.61 106.24 62.24 106.24 62.94V68.97C106.24 69.71 106.36 70.24 106.6 70.56C106.84 70.86 107.23 71.01 107.77 71.01C108.07 71.01 108.22 71.17 108.22 71.49C108.22 71.83 108.07 72 107.77 72C107.63 72 107.37 71.99 106.99 71.97C106.61 71.95 106.2 71.94 105.76 71.94C105.34 71.92 104.95 71.91 104.59 71.91C104.25 71.91 103.83 71.92 103.33 71.94C102.83 71.94 102.36 71.95 101.92 71.97C101.5 71.99 101.22 72 101.08 72ZM126.232 72.36C123.952 72.36 122.162 71.74 120.862 70.5C119.582 69.26 118.942 67.48 118.942 65.16C118.942 63.7 119.232 62.39 119.812 61.23C120.392 60.07 121.212 59.15 122.272 58.47C123.352 57.79 124.602 57.45 126.022 57.45C127.102 57.45 128.042 57.66 128.842 58.08C129.642 58.5 130.302 59.05 130.822 59.73C131.342 60.41 131.732 61.15 131.992 61.95C132.252 62.73 132.382 63.5 132.382 64.26C132.382 64.58 132.182 64.74 131.782 64.74H122.482C122.442 66.26 122.572 67.45 122.872 68.31C123.192 69.17 123.662 69.77 124.282 70.11C124.902 70.45 125.652 70.62 126.532 70.62C127.552 70.62 128.462 70.4 129.262 69.96C130.082 69.52 130.752 68.97 131.272 68.31C131.492 68.05 131.742 68.01 132.022 68.19C132.302 68.37 132.342 68.61 132.142 68.91C131.742 69.51 131.282 70.07 130.762 70.59C130.262 71.11 129.642 71.54 128.902 71.88C128.182 72.2 127.292 72.36 126.232 72.36ZM122.542 63.57H128.782C128.822 62.61 128.752 61.75 128.572 60.99C128.412 60.23 128.122 59.63 127.702 59.19C127.302 58.75 126.722 58.53 125.962 58.53C125.002 58.53 124.252 58.99 123.712 59.91C123.172 60.81 122.782 62.03 122.542 63.57ZM135.362 72C135.102 72 134.922 71.89 134.822 71.67C134.742 71.45 134.792 71.22 134.972 70.98C135.092 70.82 135.352 70.46 135.752 69.9C136.172 69.32 136.682 68.62 137.282 67.8C137.882 66.98 138.512 66.11 139.172 65.19C139.832 64.27 140.472 63.38 141.092 62.52C141.732 61.66 142.292 60.91 142.772 60.27C143.252 59.61 143.602 59.15 143.822 58.89H140.042C139.442 58.89 138.942 59.02 138.542 59.28C138.142 59.52 137.822 59.82 137.582 60.18C137.362 60.52 137.182 60.85 137.042 61.17C136.922 61.49 136.812 61.73 136.712 61.89C136.572 62.11 136.362 62.21 136.082 62.19C135.822 62.15 135.692 62 135.692 61.74C135.692 61.66 135.692 61.48 135.692 61.2C135.712 60.9 135.722 60.56 135.722 60.18C135.742 59.8 135.752 59.45 135.752 59.13C135.772 58.79 135.782 58.55 135.782 58.41C135.782 58.17 135.832 58.01 135.932 57.93C136.052 57.85 136.222 57.81 136.442 57.81C136.502 57.81 136.792 57.82 137.312 57.84C137.832 57.84 138.472 57.85 139.232 57.87C140.012 57.89 140.802 57.9 141.602 57.9C142.482 57.9 143.342 57.89 144.182 57.87C145.022 57.85 145.732 57.84 146.312 57.84C146.912 57.82 147.252 57.81 147.332 57.81C147.592 57.81 147.782 57.92 147.902 58.14C148.042 58.34 148.032 58.55 147.872 58.77C147.712 58.97 147.402 59.37 146.942 59.97C146.502 60.57 145.972 61.29 145.352 62.13C144.732 62.95 144.082 63.82 143.402 64.74C142.742 65.66 142.102 66.55 141.482 67.41C140.862 68.25 140.322 68.99 139.862 69.63C139.422 70.25 139.122 70.68 138.962 70.92H143.042C143.842 70.92 144.472 70.81 144.932 70.59C145.392 70.35 145.742 70.05 145.982 69.69C146.242 69.33 146.442 68.96 146.582 68.58C146.742 68.18 146.912 67.82 147.092 67.5C147.192 67.3 147.342 67.23 147.542 67.29C147.762 67.33 147.872 67.45 147.872 67.65V71.34C147.872 71.78 147.652 72 147.212 72C147.152 72 146.812 71.99 146.192 71.97C145.592 71.95 144.842 71.94 143.942 71.94C143.042 71.92 142.132 71.91 141.212 71.91C140.312 71.91 139.432 71.92 138.572 71.94C137.712 71.94 136.982 71.95 136.382 71.97C135.802 71.99 135.462 72 135.362 72Z" fill="white"/>
<path d="M35.468 90.648C33.524 90.648 31.742 90.414 30.122 89.946C28.502 89.478 27.134 88.974 26.018 88.434C24.902 87.858 24.092 87.462 23.588 87.246C23.12 87.606 22.706 87.93 22.346 88.218C22.022 88.506 21.608 88.902 21.104 89.406C20.744 89.766 20.402 89.874 20.078 89.73C19.754 89.55 19.592 89.262 19.592 88.866V78.336C19.592 77.904 19.826 77.652 20.294 77.58C20.798 77.508 21.104 77.634 21.212 77.958C21.896 79.974 22.94 81.774 24.344 83.358C25.748 84.942 27.422 86.184 29.366 87.084C31.346 87.948 33.47 88.38 35.738 88.38C37.61 88.38 39.122 88.002 40.274 87.246C41.462 86.49 42.344 85.536 42.92 84.384C43.496 83.196 43.784 82.026 43.784 80.874C43.784 79.326 43.352 78.084 42.488 77.148C41.624 76.176 40.49 75.402 39.086 74.826C37.682 74.214 36.116 73.692 34.388 73.26C32.696 72.828 31.004 72.36 29.312 71.856C27.62 71.352 26.072 70.704 24.668 69.912C23.264 69.084 22.13 68.004 21.266 66.672C20.402 65.304 19.97 63.576 19.97 61.488C19.97 59.004 20.564 56.934 21.752 55.278C22.976 53.586 24.596 52.308 26.612 51.444C28.628 50.58 30.806 50.148 33.146 50.148C34.658 50.148 36.098 50.328 37.466 50.688C38.87 51.048 40.13 51.48 41.246 51.984C42.362 52.452 43.226 52.884 43.838 53.28C44.27 52.884 44.63 52.56 44.918 52.308C45.242 52.02 45.494 51.804 45.674 51.66C46.034 51.372 46.358 51.318 46.646 51.498C46.934 51.642 47.078 51.948 47.078 52.416V61.65C47.078 62.118 46.844 62.406 46.376 62.514C45.944 62.622 45.638 62.442 45.458 61.974C44.666 60.21 43.658 58.572 42.434 57.06C41.246 55.548 39.86 54.324 38.276 53.388C36.728 52.452 35.018 51.984 33.146 51.984C31.598 51.984 30.23 52.326 29.042 53.01C27.854 53.658 26.918 54.522 26.234 55.602C25.55 56.682 25.208 57.888 25.208 59.22C25.208 60.732 25.64 61.938 26.504 62.838C27.404 63.738 28.574 64.458 30.014 64.998C31.454 65.538 33.038 66.006 34.766 66.402C36.53 66.798 38.276 67.248 40.004 67.752C41.732 68.22 43.316 68.868 44.756 69.696C46.196 70.524 47.348 71.64 48.212 73.044C49.112 74.412 49.562 76.212 49.562 78.444C49.562 81 48.95 83.196 47.726 85.032C46.502 86.868 44.828 88.272 42.704 89.244C40.58 90.18 38.168 90.648 35.468 90.648Z" fill="white"/>
</g>
<defs>
<filter id="filter0_d_421_801" x="0.67395" y="23.7959" width="151.438" height="74.8521" filterUnits="userSpaceOnUse" color-interpolation-filters="sRGB">
<feFlood flood-opacity="0" result="BackgroundImageFix"/>
<feColorMatrix in="SourceAlpha" type="matrix" values="0 0 0 0 0 0 0 0 0 0 0 0 0 0 0 0 0 0 127 0" result="hardAlpha"/>
<feOffset dy="4"/>
<feGaussianBlur stdDeviation="2"/>
<feComposite in2="hardAlpha" operator="out"/>
<feColorMatrix type="matrix" values="0 0 0 0 0 0 0 0 0 0 0 0 0 0 0 0 0 0 0.25 0"/>
<feBlend mode="normal" in2="BackgroundImageFix" result="effect1_dropShadow_421_801"/>
<feBlend mode="normal" in="SourceGraphic" in2="effect1_dropShadow_421_801" result="shape"/>
</filter>
</defs>
</svg>
